<?xml version="1.0" ?>
<!-- Uploaded to: SVG Repo, www.svgrepo.com, Generator: SVG Repo Mixer Tools -->
<svg width="800px" height="800px" viewBox="0 0 32 32" xmlns="http://www.w3.org/2000/svg">
<defs>
<style>.cls-1{fill:#ff005c;}</style>
</defs>
<title/>
<g id="Case">
<path d="M29,9H21V6L20,5H12L11,6V9H3L2,10V27l1,1H29l1-1V10ZM13,7h6V9H13ZM28,26H4V11H28Z"/>
<polygon class="cls-1" points="28 11 28 26 4 26 4 25 25 25 26 24 26 11 28 11"/>
<polygon points="17 15 15 15 15 17.5 12.5 17.5 12.5 19.5 15 19.5 15 22 17 22 17 19.5 19.5 19.5 19.5 17.5 17 17.5 17 15"/>
</g>
</svg>