<svg xmlns="http://www.w3.org/2000/svg" xmlns:xlink="http://www.w3.org/1999/xlink" width="50" zoomAndPan="magnify" viewBox="0 0 375 374.999991" height="50" preserveAspectRatio="xMidYMid meet" version="1.0"><defs><g/><clipPath id="a688accf62"><path d="M 20.855469 122.40625 L 102.605469 122.40625 L 102.605469 209 L 20.855469 209 Z M 20.855469 122.40625 " clip-rule="nonzero"/></clipPath></defs><rect x="-37.5" width="450" fill="#ffffff" y="-37.499999" height="449.999989" fill-opacity="1"/><rect x="-37.5" width="450" fill="#ffffff" y="-37.499999" height="449.999989" fill-opacity="1"/><g fill="#383a58" fill-opacity="1"><g transform="translate(113.40251, 151.091957)"><g><path d="M 17.265625 -5.890625 C 18.265625 -5.890625 19.226562 -6.035156 20.15625 -6.328125 C 21.09375 -6.628906 21.78125 -6.921875 22.21875 -7.203125 L 22.875 -7.65625 L 25.640625 -2.109375 C 25.546875 -2.035156 25.414062 -1.941406 25.25 -1.828125 C 25.09375 -1.710938 24.71875 -1.5 24.125 -1.1875 C 23.539062 -0.882812 22.914062 -0.613281 22.25 -0.375 C 21.582031 -0.144531 20.707031 0.0546875 19.625 0.234375 C 18.539062 0.421875 17.421875 0.515625 16.265625 0.515625 C 13.609375 0.515625 11.09375 -0.132812 8.71875 -1.4375 C 6.34375 -2.738281 4.425781 -4.53125 2.96875 -6.8125 C 1.519531 -9.101562 0.796875 -11.570312 0.796875 -14.21875 C 0.796875 -16.226562 1.222656 -18.15625 2.078125 -20 C 2.929688 -21.84375 4.066406 -23.421875 5.484375 -24.734375 C 6.898438 -26.054688 8.554688 -27.109375 10.453125 -27.890625 C 12.347656 -28.679688 14.285156 -29.078125 16.265625 -29.078125 C 18.109375 -29.078125 19.804688 -28.851562 21.359375 -28.40625 C 22.921875 -27.96875 24.023438 -27.53125 24.671875 -27.09375 L 25.640625 -26.4375 L 22.875 -20.90625 C 22.71875 -21.039062 22.476562 -21.207031 22.15625 -21.40625 C 21.832031 -21.601562 21.1875 -21.863281 20.21875 -22.1875 C 19.25 -22.507812 18.265625 -22.671875 17.265625 -22.671875 C 15.703125 -22.671875 14.296875 -22.414062 13.046875 -21.90625 C 11.796875 -21.394531 10.804688 -20.722656 10.078125 -19.890625 C 9.359375 -19.066406 8.804688 -18.175781 8.421875 -17.21875 C 8.046875 -16.257812 7.859375 -15.285156 7.859375 -14.296875 C 7.859375 -12.128906 8.671875 -10.1875 10.296875 -8.46875 C 11.921875 -6.75 14.242188 -5.890625 17.265625 -5.890625 Z M 17.265625 -5.890625 "/></g></g></g><g fill="#383a58" fill-opacity="1"><g transform="translate(139.467827, 151.091957)"><g><path d="M 18.40625 -28.546875 L 18.40625 -22.84375 L 8.578125 -22.84375 L 8.578125 -17.171875 L 18 -17.171875 L 18 -11.453125 L 8.578125 -11.453125 L 8.578125 -5.703125 L 18.40625 -5.703125 L 18.40625 0 L 2.078125 0 L 2.078125 -28.546875 Z M 18.40625 -28.546875 "/></g></g></g><g fill="#383a58" fill-opacity="1"><g transform="translate(159.54469, 151.091957)"><g><path d="M 8.578125 -17.71875 L 8.578125 0 L 2.078125 0 L 2.078125 -28.546875 L 8.578125 -28.546875 L 19.9375 -10.828125 L 20 -10.828125 L 20 -28.546875 L 26.515625 -28.546875 L 26.515625 0 L 20 0 L 8.65625 -17.71875 Z M 8.578125 -17.71875 "/></g></g></g><g fill="#383a58" fill-opacity="1"><g transform="translate(188.136921, 151.091957)"><g><path d="M 0.28125 -22.84375 L 0.28125 -28.546875 L 20.34375 -28.546875 L 20.34375 -22.84375 L 13.5625 -22.84375 L 13.5625 0 L 7.0625 0 L 7.0625 -22.84375 Z M 0.28125 -22.84375 "/></g></g></g><g fill="#383a58" fill-opacity="1"><g transform="translate(208.767637, 151.091957)"><g><path d="M 2.078125 -28.546875 L 12.28125 -28.546875 C 15.03125 -28.546875 17.269531 -27.8125 19 -26.34375 C 20.726562 -24.882812 21.59375 -22.796875 21.59375 -20.078125 C 21.59375 -17.972656 21.066406 -16.210938 20.015625 -14.796875 C 18.972656 -13.378906 17.550781 -12.378906 15.75 -11.796875 L 25.578125 0 L 17.296875 0 L 8.578125 -11.28125 L 8.578125 0 L 2.078125 0 Z M 8.578125 -15.890625 L 9.34375 -15.890625 C 9.945312 -15.890625 10.453125 -15.898438 10.859375 -15.921875 C 11.273438 -15.941406 11.75 -16.019531 12.28125 -16.15625 C 12.8125 -16.300781 13.238281 -16.5 13.5625 -16.75 C 13.882812 -17 14.160156 -17.363281 14.390625 -17.84375 C 14.628906 -18.332031 14.75 -18.921875 14.75 -19.609375 C 14.75 -20.304688 14.628906 -20.894531 14.390625 -21.375 C 14.160156 -21.863281 13.882812 -22.234375 13.5625 -22.484375 C 13.238281 -22.742188 12.8125 -22.941406 12.28125 -23.078125 C 11.75 -23.222656 11.273438 -23.304688 10.859375 -23.328125 C 10.453125 -23.347656 9.945312 -23.359375 9.34375 -23.359375 L 8.578125 -23.359375 Z M 8.578125 -15.890625 "/></g></g></g><g fill="#383a58" fill-opacity="1"><g transform="translate(233.552183, 151.091957)"><g><path d="M 0.796875 -14.296875 C 0.796875 -18.421875 2.203125 -21.914062 5.015625 -24.78125 C 7.828125 -27.644531 11.21875 -29.078125 15.1875 -29.078125 C 19.1875 -29.078125 22.582031 -27.648438 25.375 -24.796875 C 28.164062 -21.941406 29.5625 -18.441406 29.5625 -14.296875 C 29.5625 -10.117188 28.1875 -6.601562 25.4375 -3.75 C 22.6875 -0.90625 19.269531 0.515625 15.1875 0.515625 C 11.007812 0.515625 7.566406 -0.894531 4.859375 -3.71875 C 2.148438 -6.539062 0.796875 -10.066406 0.796875 -14.296875 Z M 7.828125 -14.296875 C 7.828125 -12.796875 8.054688 -11.425781 8.515625 -10.1875 C 8.972656 -8.957031 9.78125 -7.914062 10.9375 -7.0625 C 12.09375 -6.207031 13.507812 -5.78125 15.1875 -5.78125 C 17.613281 -5.78125 19.441406 -6.609375 20.671875 -8.265625 C 21.910156 -9.929688 22.53125 -11.941406 22.53125 -14.296875 C 22.53125 -16.628906 21.898438 -18.628906 20.640625 -20.296875 C 19.390625 -21.972656 17.570312 -22.8125 15.1875 -22.8125 C 12.832031 -22.8125 11.015625 -21.972656 9.734375 -20.296875 C 8.460938 -18.628906 7.828125 -16.628906 7.828125 -14.296875 Z M 7.828125 -14.296875 "/></g></g></g><g fill="#383a58" fill-opacity="1"><g transform="translate(263.909787, 151.091957)"><g/></g></g><g fill="#383a58" fill-opacity="1"><g transform="translate(273.359764, 151.091957)"><g><path d="M 2.078125 -28.546875 L 10.34375 -28.546875 C 14.3125 -28.546875 17.703125 -27.191406 20.515625 -24.484375 C 23.335938 -21.773438 24.75 -18.378906 24.75 -14.296875 C 24.75 -10.191406 23.34375 -6.78125 20.53125 -4.0625 C 17.726562 -1.351562 14.332031 0 10.34375 0 L 2.078125 0 Z M 8.578125 -5.8125 L 9.59375 -5.8125 C 11.96875 -5.8125 13.910156 -6.613281 15.421875 -8.21875 C 16.929688 -9.820312 17.695312 -11.835938 17.71875 -14.265625 C 17.71875 -16.679688 16.960938 -18.695312 15.453125 -20.3125 C 13.941406 -21.925781 11.988281 -22.734375 9.59375 -22.734375 L 8.578125 -22.734375 Z M 8.578125 -5.8125 "/></g></g></g><g fill="#383a58" fill-opacity="1"><g transform="translate(298.905853, 151.091957)"><g><path d="M 18.40625 -28.546875 L 18.40625 -22.84375 L 8.578125 -22.84375 L 8.578125 -17.171875 L 18 -17.171875 L 18 -11.453125 L 8.578125 -11.453125 L 8.578125 -5.703125 L 18.40625 -5.703125 L 18.40625 0 L 2.078125 0 L 2.078125 -28.546875 Z M 18.40625 -28.546875 "/></g></g></g><g fill="#383a58" fill-opacity="1"><g transform="translate(113.40251, 190.03947)"><g><path d="M 12.59375 -29.078125 C 14.144531 -29.078125 15.65625 -28.847656 17.125 -28.390625 C 18.601562 -27.941406 19.703125 -27.5 20.421875 -27.0625 L 21.453125 -26.375 L 18.828125 -21.1875 C 18.617188 -21.320312 18.328125 -21.5 17.953125 -21.71875 C 17.585938 -21.9375 16.894531 -22.226562 15.875 -22.59375 C 14.863281 -22.96875 13.921875 -23.15625 13.046875 -23.15625 C 11.960938 -23.15625 11.125 -22.921875 10.53125 -22.453125 C 9.945312 -21.992188 9.65625 -21.375 9.65625 -20.59375 C 9.65625 -20.195312 9.789062 -19.832031 10.0625 -19.5 C 10.34375 -19.164062 10.816406 -18.804688 11.484375 -18.421875 C 12.160156 -18.046875 12.75 -17.742188 13.25 -17.515625 C 13.757812 -17.285156 14.546875 -16.9375 15.609375 -16.46875 C 17.453125 -15.6875 19.023438 -14.617188 20.328125 -13.265625 C 21.628906 -11.921875 22.28125 -10.394531 22.28125 -8.6875 C 22.28125 -7.050781 21.984375 -5.617188 21.390625 -4.390625 C 20.804688 -3.171875 20 -2.210938 18.96875 -1.515625 C 17.945312 -0.828125 16.8125 -0.316406 15.5625 0.015625 C 14.320312 0.347656 12.976562 0.515625 11.53125 0.515625 C 10.28125 0.515625 9.054688 0.382812 7.859375 0.125 C 6.660156 -0.125 5.65625 -0.4375 4.84375 -0.8125 C 4.039062 -1.195312 3.316406 -1.570312 2.671875 -1.9375 C 2.023438 -2.300781 1.550781 -2.613281 1.25 -2.875 L 0.796875 -3.25 L 4.046875 -8.71875 C 4.328125 -8.488281 4.707031 -8.191406 5.1875 -7.828125 C 5.675781 -7.472656 6.535156 -6.992188 7.765625 -6.390625 C 9.003906 -5.796875 10.097656 -5.5 11.046875 -5.5 C 13.785156 -5.5 15.15625 -6.4375 15.15625 -8.3125 C 15.15625 -8.695312 15.054688 -9.054688 14.859375 -9.390625 C 14.671875 -9.722656 14.328125 -10.054688 13.828125 -10.390625 C 13.328125 -10.734375 12.882812 -11 12.5 -11.1875 C 12.125 -11.382812 11.503906 -11.6875 10.640625 -12.09375 C 9.773438 -12.5 9.132812 -12.804688 8.71875 -13.015625 C 6.988281 -13.867188 5.648438 -14.9375 4.703125 -16.21875 C 3.753906 -17.5 3.28125 -18.875 3.28125 -20.34375 C 3.28125 -22.90625 4.226562 -25 6.125 -26.625 C 8.019531 -28.257812 10.175781 -29.078125 12.59375 -29.078125 Z M 12.59375 -29.078125 "/></g></g></g><g fill="#383a58" fill-opacity="1"><g transform="translate(136.663985, 190.03947)"><g><path d="M 16.578125 -28.546875 L 28.109375 0 L 21.109375 0 L 19 -5.703125 L 8.140625 -5.703125 L 6.015625 0 L -0.96875 0 L 10.5625 -28.546875 Z M 16.78125 -11.421875 L 13.59375 -19.734375 L 13.53125 -19.734375 L 10.34375 -11.421875 Z M 16.78125 -11.421875 "/></g></g></g><g fill="#383a58" fill-opacity="1"><g transform="translate(163.80238, 190.03947)"><g><path d="M 8.578125 -28.546875 L 8.578125 -5.703125 L 18.40625 -5.703125 L 18.40625 0 L 2.078125 0 L 2.078125 -28.546875 Z M 8.578125 -28.546875 "/></g></g></g><g fill="#383a58" fill-opacity="1"><g transform="translate(183.360016, 190.03947)"><g><path d="M 24.015625 -28.546875 L 24.015625 -10.140625 C 24.015625 -6.628906 23.066406 -3.972656 21.171875 -2.171875 C 19.285156 -0.378906 16.519531 0.515625 12.875 0.515625 C 9.226562 0.515625 6.457031 -0.378906 4.5625 -2.171875 C 2.675781 -3.972656 1.734375 -6.628906 1.734375 -10.140625 L 1.734375 -28.546875 L 8.234375 -28.546875 L 8.234375 -12.046875 C 8.234375 -9.734375 8.597656 -8.128906 9.328125 -7.234375 C 10.054688 -6.335938 11.238281 -5.890625 12.875 -5.890625 C 14.507812 -5.890625 15.691406 -6.335938 16.421875 -7.234375 C 17.148438 -8.128906 17.515625 -9.734375 17.515625 -12.046875 L 17.515625 -28.546875 Z M 24.015625 -28.546875 "/></g></g></g><g fill="#383a58" fill-opacity="1"><g transform="translate(209.113797, 190.03947)"><g><path d="M 2.078125 -28.546875 L 10.34375 -28.546875 C 14.3125 -28.546875 17.703125 -27.191406 20.515625 -24.484375 C 23.335938 -21.773438 24.75 -18.378906 24.75 -14.296875 C 24.75 -10.191406 23.34375 -6.78125 20.53125 -4.0625 C 17.726562 -1.351562 14.332031 0 10.34375 0 L 2.078125 0 Z M 8.578125 -5.8125 L 9.59375 -5.8125 C 11.96875 -5.8125 13.910156 -6.613281 15.421875 -8.21875 C 16.929688 -9.820312 17.695312 -11.835938 17.71875 -14.265625 C 17.71875 -16.679688 16.960938 -18.695312 15.453125 -20.3125 C 13.941406 -21.925781 11.988281 -22.734375 9.59375 -22.734375 L 8.578125 -22.734375 Z M 8.578125 -5.8125 "/></g></g></g><g fill="#383a58" fill-opacity="1"><g transform="translate(113.40251, 222.427456)"><g><path d="M 5.511719 -19.285156 L 1.507812 -19.285156 L 1.507812 0 L 5.511719 0 Z M 5.511719 -19.285156 "/></g></g></g><g fill="#383a58" fill-opacity="1"><g transform="translate(123.365368, 222.427456)"><g><path d="M 15.5 -19.285156 L 11.695312 -19.285156 L 11.695312 -11.199219 L 11.816406 -7.316406 L 5.613281 -19.285156 L 1.382812 -19.285156 L 1.382812 0 L 5.167969 0 L 5.167969 -8.085938 L 5.042969 -11.964844 L 11.273438 0 L 15.5 0 Z M 15.5 -19.285156 "/></g></g></g><g fill="#383a58" fill-opacity="1"><g transform="translate(143.215757, 222.427456)"><g><path d="M 1.382812 -19.285156 L 1.382812 0 L 5.390625 0 L 5.390625 -8.109375 L 11.84375 -8.109375 L 11.84375 -11.570312 L 5.390625 -11.570312 L 5.390625 -15.824219 L 13.078125 -15.824219 L 13.078125 -19.285156 Z M 1.382812 -19.285156 "/></g></g></g><g fill="#383a58" fill-opacity="1"><g transform="translate(159.753831, 222.427456)"><g><path d="M 8.308594 0.320312 C 13.324219 0.320312 15.675781 -2.472656 15.675781 -9.148438 L 15.675781 -10.136719 C 15.675781 -16.8125 13.324219 -19.605469 8.308594 -19.605469 C 3.3125 -19.605469 0.964844 -16.8125 0.964844 -10.136719 L 0.964844 -9.148438 C 0.964844 -2.472656 3.3125 0.320312 8.308594 0.320312 Z M 8.207031 -3.140625 C 5.734375 -3.140625 5.019531 -5.289062 5.019531 -9.148438 L 5.019531 -10.136719 C 5.019531 -13.992188 5.734375 -16.144531 8.207031 -16.144531 L 8.429688 -16.144531 C 10.902344 -16.144531 11.59375 -13.992188 11.59375 -10.136719 L 11.59375 -9.148438 C 11.59375 -5.289062 10.902344 -3.140625 8.429688 -3.140625 Z M 8.207031 -3.140625 "/></g></g></g><g fill="#383a58" fill-opacity="1"><g transform="translate(179.357037, 222.427456)"><g><path d="M 5.390625 -6.921875 L 7.441406 -6.921875 L 10.085938 0 L 14.414062 0 L 11.371094 -7.492188 C 13.101562 -8.207031 14.414062 -9.742188 14.414062 -12.855469 L 14.414062 -13.351562 C 14.414062 -18.46875 10.851562 -19.285156 7.714844 -19.285156 L 1.382812 -19.285156 L 1.382812 0 L 5.390625 0 Z M 5.390625 -10.382812 L 5.390625 -15.824219 L 7.886719 -15.824219 C 8.972656 -15.824219 10.359375 -15.402344 10.359375 -13.226562 L 10.359375 -12.980469 C 10.359375 -10.804688 8.972656 -10.382812 7.886719 -10.382812 Z M 5.390625 -10.382812 "/></g></g></g><g fill="#383a58" fill-opacity="1"><g transform="translate(197.7243, 222.427456)"><g><path d="M 16.21875 -12.335938 L 16.117188 -8.480469 L 16.117188 0 L 20.125 0 L 20.125 -19.285156 L 14.191406 -19.285156 L 10.753906 -6.945312 L 7.292969 -19.285156 L 1.382812 -19.285156 L 1.382812 0 L 5.390625 0 L 5.390625 -8.480469 L 5.265625 -12.335938 L 8.703125 0 L 12.78125 0 Z M 16.21875 -12.335938 "/></g></g></g><g fill="#383a58" fill-opacity="1"><g transform="translate(222.172399, 222.427456)"><g><path d="M 5.167969 -19.332031 L 0.347656 0 L 4.648438 0 L 5.5625 -4.152344 L 10.285156 -4.152344 L 11.222656 0 L 15.5 0 L 10.679688 -19.332031 Z M 7.910156 -14.710938 L 9.492188 -7.613281 L 6.328125 -7.613281 Z M 7.910156 -14.710938 "/></g></g></g><g fill="#383a58" fill-opacity="1"><g transform="translate(240.98461, 222.427456)"><g><path d="M 8.875 -15.824219 L 13.351562 -15.824219 L 13.351562 -19.285156 L 0.421875 -19.285156 L 0.421875 -15.824219 L 4.871094 -15.824219 L 4.871094 0 L 8.875 0 Z M 8.875 -15.824219 "/></g></g></g><g fill="#383a58" fill-opacity="1"><g transform="translate(257.720435, 222.427456)"><g><path d="M 5.511719 -19.285156 L 1.507812 -19.285156 L 1.507812 0 L 5.511719 0 Z M 5.511719 -19.285156 "/></g></g></g><g fill="#383a58" fill-opacity="1"><g transform="translate(267.683286, 222.427456)"><g><path d="M 5.019531 -9.148438 L 5.019531 -10.136719 C 5.019531 -13.992188 5.636719 -16.144531 8.207031 -16.144531 L 8.429688 -16.144531 C 10.53125 -16.144531 11.101562 -14.609375 11.101562 -11.964844 L 15.105469 -11.964844 L 15.105469 -12.855469 C 15.105469 -17.675781 12.78125 -19.605469 8.207031 -19.605469 C 3.1875 -19.605469 0.964844 -16.8125 0.964844 -10.136719 L 0.964844 -9.148438 C 0.964844 -2.472656 3.1875 0.320312 8.207031 0.320312 C 12.78125 0.320312 15.105469 -1.605469 15.105469 -6.355469 L 15.105469 -6.574219 L 11.101562 -6.574219 C 11.101562 -4.5 10.382812 -3.140625 8.429688 -3.140625 L 8.207031 -3.140625 C 5.636719 -3.140625 5.019531 -5.289062 5.019531 -9.148438 Z M 5.019531 -9.148438 "/></g></g></g><g fill="#383a58" fill-opacity="1"><g transform="translate(286.717945, 222.427456)"><g><path d="M 5.167969 -19.332031 L 0.347656 0 L 4.648438 0 L 5.5625 -4.152344 L 10.285156 -4.152344 L 11.222656 0 L 15.5 0 L 10.679688 -19.332031 Z M 7.910156 -14.710938 L 9.492188 -7.613281 L 6.328125 -7.613281 Z M 7.910156 -14.710938 "/></g></g></g><g clip-path="url(#a688accf62)"><path fill="#05a9d7" d="M 87.734375 183.242188 C 92.003906 183.242188 95.476562 186.714844 95.476562 190.984375 C 95.476562 195.25 92.003906 198.722656 87.734375 198.722656 C 83.46875 198.722656 79.996094 195.25 79.996094 190.984375 C 79.996094 186.714844 83.46875 183.242188 87.734375 183.242188 Z M 67.96875 124.175781 C 64.480469 125.722656 62.058594 128.300781 60.960938 131.636719 C 59.714844 135.429688 60.101562 139.636719 62.042969 143.484375 C 63.019531 145.414062 64.261719 147.1875 65.558594 148.988281 C 66.820312 150.742188 68.175781 152.535156 69.585938 154.3125 C 69.636719 154.378906 69.699219 154.433594 69.769531 154.472656 C 73.363281 159.851562 75.261719 166.121094 75.261719 172.613281 C 75.261719 176.441406 74.609375 180.1875 73.3125 183.753906 L 71.613281 183.753906 L 71.613281 163.429688 L 56.753906 163.429688 L 56.753906 183.753906 L 35.363281 183.753906 L 35.363281 199 L 56.753906 199 L 56.753906 202.066406 C 52.320312 204.207031 47.554688 205.289062 42.585938 205.289062 C 34.867188 205.289062 27.375 202.546875 21.488281 197.566406 L 20.882812 198.171875 C 21.179688 198.523438 21.496094 198.878906 21.820312 199.234375 L 21.84375 199.257812 C 28.046875 204.960938 36.109375 208.101562 44.539062 208.101562 C 48.976562 208.101562 53.289062 207.25 57.351562 205.570312 C 61.886719 203.691406 66.039062 200.773438 69.355469 197.125 C 72.691406 193.460938 75.207031 189.027344 76.636719 184.308594 C 77.59375 181.164062 78.078125 177.886719 78.078125 174.566406 C 78.078125 166.488281 75.164062 158.6875 69.878906 152.597656 C 68.496094 150.828125 67.195312 149.078125 66.003906 147.394531 C 64.613281 145.425781 63.519531 143.738281 62.714844 141.886719 C 60.90625 137.726562 61.175781 132.820312 63.40625 129.390625 C 65.023438 126.90625 68.167969 125.007812 71.8125 124.316406 C 75.152344 123.679688 79.113281 123.976562 82.6875 125.128906 C 90.730469 127.726562 95.265625 135.960938 97.253906 140.640625 C 100.277344 147.753906 101.429688 155.957031 100.59375 164.359375 C 100.042969 169.90625 98.199219 177.617188 92.574219 183.023438 C 91.160156 182.160156 89.503906 181.667969 87.734375 181.667969 C 82.597656 181.667969 78.417969 185.84375 78.417969 190.984375 C 78.417969 196.121094 82.597656 200.300781 87.734375 200.300781 C 92.871094 200.300781 97.050781 196.121094 97.050781 190.984375 C 97.050781 188.085938 95.722656 185.496094 93.644531 183.785156 C 94.207031 183.234375 94.738281 182.667969 95.214844 182.09375 C 99.394531 177.101562 101.769531 169.945312 102.085938 161.402344 C 102.425781 152.28125 100.578125 143.703125 96.746094 136.601562 C 94.753906 132.917969 92.34375 129.867188 89.578125 127.535156 C 86.683594 125.09375 83.171875 123.574219 79.140625 123.011719 C 74.824219 122.410156 71.0625 122.804688 67.96875 124.175781 " fill-opacity="1" fill-rule="nonzero"/></g><path fill="#383a58" d="M 87.734375 185.046875 C 84.457031 185.046875 81.800781 187.707031 81.800781 190.984375 C 81.800781 194.261719 84.457031 196.917969 87.734375 196.917969 C 91.011719 196.917969 93.667969 194.261719 93.667969 190.984375 C 93.667969 187.707031 91.011719 185.046875 87.734375 185.046875 Z M 79.855469 184.183594 L 78.703125 184.183594 C 77.417969 189.621094 74.785156 194.539062 71.183594 198.570312 L 80.609375 198.570312 C 78.589844 196.671875 77.328125 193.972656 77.328125 190.980469 C 77.328125 188.382812 78.277344 186.007812 79.855469 184.183594 Z M 57.1875 218.894531 L 57.1875 207.859375 C 62.628906 206 67.433594 202.769531 71.183594 198.570312 L 71.183594 218.894531 L 57.1875 218.894531 " fill-opacity="1" fill-rule="nonzero"/></svg>