<?xml version="1.0" encoding="utf-8"?>
<!-- Generator: Adobe Illustrator 27.5.0, SVG Export Plug-In . SVG Version: 6.00 Build 0)  -->
<svg version="1.1" id="Capa_1" xmlns="http://www.w3.org/2000/svg" xmlns:xlink="http://www.w3.org/1999/xlink" x="0px" y="0px"
	 viewBox="0 0 2192 2054" style="enable-background:new 0 0 2192 2054;" xml:space="preserve">
<g>
	<g>
		<path style="fill:#A7D5F4;" d="M1927.313,553.883H1749.07v-10.215h-281.277c-9.309-208.336-181.133-374.395-391.762-374.395l0,0
			c-4.418,0-104.203,0-104.203,0c-210.633,0-382.457,166.059-391.766,374.395l0,0H306.047v10.215h-45
			c-80.336,0-145.469,65.129-145.469,145.469v1039.645c0,80.336,65.133,145.465,145.469,145.465h1666.266
			c80.336,0,145.465-65.129,145.465-145.465V699.352C2072.777,619.012,2007.648,553.883,1927.313,553.883z M1201.086,553.883
			H846.773v-5.926c0-108.687,75.652-199.641,177.156-223.238c101.504,23.598,177.156,114.551,177.156,223.238V553.883z"/>
	</g>
	<g>
		<path style="fill:#BADCF5;" d="M1637.609,626.887v-83.219h-204.785v81.766H510.832v-81.766H306.047v83.219
			c-63.074,9.402-111.457,63.785-111.457,129.48v925.613c0,72.309,58.617,130.93,130.93,130.93h1292.625
			c72.305,0,130.926-58.621,130.926-130.93V756.367C1749.07,690.672,1700.684,636.289,1637.609,626.887z"/>
	</g>
	<g>
		<g>
			<path style="fill:#7CB8E6;" d="M1432.824,553.883v-10.215h34.969c-9.309-208.336-181.133-374.395-391.762-374.395l0,0
				c-4.418,0-104.203,0-104.203,0c-214.063,0-388.047,171.512-392.09,384.609h267.035v-5.926
				c0-108.687,75.652-199.641,177.156-223.238c101.504,23.598,177.156,114.551,177.156,223.238v5.926H1432.824z"/>
		</g>
		<g>
			<path style="fill:#98C9EE;" d="M742.574,553.883v-5.926c0-126.617,102.641-229.258,229.254-229.258l0,0
				c126.617,0,229.258,102.641,229.258,229.258v5.926h162.836c-4.047-213.098-178.031-384.609-392.094-384.609l0,0
				c-214.063,0-388.047,171.512-392.09,384.609H742.574z"/>
		</g>
	</g>
	<g>
		<path style="fill:#98C9EE;" d="M1930.07,553.883h-247.461c80.34,0,145.469,65.129,145.469,145.469v1039.645
			c0,80.336-65.129,145.465-145.469,145.465h247.461c80.344,0,145.473-65.129,145.473-145.465V699.352
			C2075.543,619.012,2010.414,553.883,1930.07,553.883z"/>
	</g>
	<g>
		<path style="fill:#4291CC;" d="M115.578,1605.84v133.156c0,80.336,65.133,145.465,145.469,145.465h1421.563
			c80.34,0,145.469-65.129,145.469-145.465V1605.84H115.578z"/>
	</g>
	<g>
		<path style="fill:#549ED4;" d="M194.59,1605.84v76.141c0,72.309,58.617,130.93,130.93,130.93h1292.625
			c72.305,0,130.926-58.621,130.926-130.93v-76.141H194.59z"/>
	</g>
	<g>
		<path style="fill:#3888C7;" d="M1828.078,1605.84v133.156c0,80.336-65.129,145.465-145.469,145.465h247.465
			c80.34,0,145.469-65.129,145.469-145.465V1605.84H1828.078z"/>
	</g>
	<g>
		<path style="fill:#4893CF;" d="M1207.813,1111.105h-127.914V983.188c0-59.684-48.383-108.066-108.07-108.066l0,0
			c-59.684,0-108.07,48.383-108.07,108.066v127.918h-127.91c-59.688,0-108.07,48.383-108.07,108.066l0,0
			c0,59.688,48.383,108.07,108.07,108.07h127.91v127.914c0,59.688,48.387,108.07,108.07,108.07l0,0
			c59.688,0,108.07-48.383,108.07-108.07v-127.914h127.914c59.684,0,108.07-48.383,108.07-108.07l0,0
			C1315.883,1159.488,1267.496,1111.105,1207.813,1111.105z"/>
	</g>
	<g>
		<g>
			<g>
				<path style="fill:#4893CF;" d="M1432.824,543.668v88.605c0,16.617,13.473,30.086,30.086,30.086h144.613
					c16.617,0,30.086-13.469,30.086-30.086v-78.391h111.461v-10.215H1432.824z"/>
			</g>
			<g>
				<path style="fill:#4893CF;" d="M306.047,543.668v88.605c0,16.617,13.469,30.086,30.086,30.086h144.613
					c16.617,0,30.086-13.469,30.086-30.086v-78.391h68.906c0.063-3.418,0.176-6.82,0.324-10.215H306.047z"/>
			</g>
		</g>
		<g>
			<rect x="1637.609" y="543.668" style="fill:#3084C6;" width="111.461" height="10.215"/>
		</g>
		<g>
			<path style="fill:#3084C6;" d="M510.832,543.668v10.215h68.906c0.063-3.418,0.176-6.82,0.324-10.215H510.832z"/>
		</g>
	</g>
</g>
</svg>
